# xmcd
#
# Track frame offsets:
#	182
#	15685
#	33902
#	57792
#	74252
#	93122
#	112192
#	132390
#	148985
#	167232
#	182275
#	196352
#	215677
#	230562
#
# Disc length: 3269 seconds
#
# Revision: 0
# Processed by: cddbd v1.5.1PL0 Copyright (c) Steve Scherf et al.
# Submitted via: dBpowerAMP V4.0
#
DISCID=cb0cc30e
DTITLE=Fausto Papetti - Blue Eyes
DYEAR=1900
DGENRE=Instrumental
TTITLE0=Ojos azules
TTITLE1=Mi único amor
TTITLE2=Investigación privada
TTITLE3=Samba de una nota
TTITLE4=A mi manera
TTITLE5=Tutta N'ata storia
TTITLE6=Ojos en el cielo
TTITLE7=Consuelo
TTITLE8=Difícil decir lo siento
TTITLE9=Ëbano y marfil
TTITLE10=La inmensidad
TTITLE11=Realidad
TTITLE12=Primer amor
TTITLE13=Tema de Paraíso
EXTD=
EXTT0=
EXTT1=
EXTT2=
EXTT3=
EXTT4=
EXTT5=
EXTT6=
EXTT7=
EXTT8=
EXTT9=
EXTT10=
EXTT11=
EXTT12=
EXTT13=
PLAYORDER=
